<mxfile host="app.diagrams.net" agent="Mozilla/5.0 (Windows NT 10.0; Win64; x64) AppleWebKit/537.36 (KHTML, like Gecko) Chrome/138.0.0.0 Safari/537.36 Edg/138.0.0.0" version="28.0.7" pages="3">
  <diagram name="Page-1" id="9M1CcUMf5qTGp2dTOIDV">
    <mxGraphModel dx="3073" dy="2694" grid="1" gridSize="10" guides="1" tooltips="1" connect="1" arrows="1" fold="1" page="1" pageScale="1" pageWidth="850" pageHeight="1100" math="0" shadow="0">
      <root>
        <mxCell id="0" />
        <mxCell id="1" parent="0" />
        <mxCell id="NU_M2kYpsmVGyGIH2Jjc-45" value="Category" style="whiteSpace=wrap;html=1;align=center;" vertex="1" parent="1">
          <mxGeometry x="1384" y="-7.5" width="100" height="40" as="geometry" />
        </mxCell>
        <mxCell id="NU_M2kYpsmVGyGIH2Jjc-46" value="" style="endArrow=classic;html=1;rounded=0;fontSize=12;startSize=8;endSize=8;curved=1;exitX=0.07;exitY=-0.042;exitDx=0;exitDy=0;exitPerimeter=0;" edge="1" parent="1" source="NU_M2kYpsmVGyGIH2Jjc-45">
          <mxGeometry width="50" height="50" relative="1" as="geometry">
            <mxPoint x="1364" y="82.5" as="sourcePoint" />
            <mxPoint x="1364" y="-57.5" as="targetPoint" />
          </mxGeometry>
        </mxCell>
        <mxCell id="NU_M2kYpsmVGyGIH2Jjc-49" value="" style="endArrow=classic;html=1;rounded=0;fontSize=12;startSize=8;endSize=8;curved=1;exitX=0.75;exitY=0;exitDx=0;exitDy=0;" edge="1" parent="1" source="NU_M2kYpsmVGyGIH2Jjc-45">
          <mxGeometry width="50" height="50" relative="1" as="geometry">
            <mxPoint x="1434" y="82.5" as="sourcePoint" />
            <mxPoint x="1524" y="-37.5" as="targetPoint" />
          </mxGeometry>
        </mxCell>
        <mxCell id="NU_M2kYpsmVGyGIH2Jjc-50" value="Description" style="ellipse;whiteSpace=wrap;html=1;align=center;" vertex="1" parent="1">
          <mxGeometry x="1514" y="-67.5" width="100" height="40" as="geometry" />
        </mxCell>
        <mxCell id="NU_M2kYpsmVGyGIH2Jjc-51" value="" style="endArrow=classic;html=1;rounded=0;fontSize=12;startSize=8;endSize=8;curved=1;exitX=1;exitY=0.5;exitDx=0;exitDy=0;" edge="1" parent="1" source="NU_M2kYpsmVGyGIH2Jjc-45">
          <mxGeometry width="50" height="50" relative="1" as="geometry">
            <mxPoint x="1434" y="82.5" as="sourcePoint" />
            <mxPoint x="1524" y="12.5" as="targetPoint" />
          </mxGeometry>
        </mxCell>
        <mxCell id="NU_M2kYpsmVGyGIH2Jjc-53" value="" style="endArrow=classic;html=1;rounded=0;fontSize=12;startSize=8;endSize=8;curved=1;exitX=0.923;exitY=1.042;exitDx=0;exitDy=0;exitPerimeter=0;entryX=0.113;entryY=0.374;entryDx=0;entryDy=0;entryPerimeter=0;" edge="1" parent="1" source="NU_M2kYpsmVGyGIH2Jjc-45">
          <mxGeometry width="50" height="50" relative="1" as="geometry">
            <mxPoint x="1434" y="82.5" as="sourcePoint" />
            <mxPoint x="1515.0600000000004" y="64.94000000000005" as="targetPoint" />
          </mxGeometry>
        </mxCell>
        <mxCell id="NU_M2kYpsmVGyGIH2Jjc-55" value="CategoryId" style="ellipse;whiteSpace=wrap;html=1;align=center;fontStyle=4;" vertex="1" parent="1">
          <mxGeometry x="1311.5" y="-97.5" width="100" height="40" as="geometry" />
        </mxCell>
        <mxCell id="NU_M2kYpsmVGyGIH2Jjc-59" value="CategoryName" style="ellipse;whiteSpace=wrap;html=1;align=center;" vertex="1" parent="1">
          <mxGeometry x="1425.25" y="-97.5" width="100" height="40" as="geometry" />
        </mxCell>
        <mxCell id="NU_M2kYpsmVGyGIH2Jjc-60" value="parentId" style="ellipse;whiteSpace=wrap;html=1;align=center;" vertex="1" parent="1">
          <mxGeometry x="1521.5" y="-7.5" width="100" height="40" as="geometry" />
        </mxCell>
        <mxCell id="NU_M2kYpsmVGyGIH2Jjc-61" value="parent" style="shape=rhombus;perimeter=rhombusPerimeter;whiteSpace=wrap;html=1;align=center;" vertex="1" parent="1">
          <mxGeometry x="1494" y="49.5" width="120" height="60" as="geometry" />
        </mxCell>
        <mxCell id="NU_M2kYpsmVGyGIH2Jjc-63" value="" style="endArrow=classic;html=1;rounded=0;fontSize=12;startSize=8;endSize=8;curved=1;exitX=0;exitY=0;exitDx=0;exitDy=0;entryX=1;entryY=0.75;entryDx=0;entryDy=0;" edge="1" parent="1" target="NU_M2kYpsmVGyGIH2Jjc-45">
          <mxGeometry width="50" height="50" relative="1" as="geometry">
            <mxPoint x="1531.5" y="57.500000000000455" as="sourcePoint" />
            <mxPoint x="1491.5" y="-177.5" as="targetPoint" />
          </mxGeometry>
        </mxCell>
        <mxCell id="NU_M2kYpsmVGyGIH2Jjc-64" value="1" style="text;strokeColor=none;fillColor=none;spacingLeft=4;spacingRight=4;overflow=hidden;rotatable=0;points=[[0,0.5],[1,0.5]];portConstraint=eastwest;fontSize=12;whiteSpace=wrap;html=1;" vertex="1" parent="1">
          <mxGeometry x="1471.5" y="32.5" width="20" height="20" as="geometry" />
        </mxCell>
        <mxCell id="NU_M2kYpsmVGyGIH2Jjc-65" value="n" style="text;strokeColor=none;fillColor=none;spacingLeft=4;spacingRight=4;overflow=hidden;rotatable=0;points=[[0,0.5],[1,0.5]];portConstraint=eastwest;fontSize=12;whiteSpace=wrap;html=1;" vertex="1" parent="1">
          <mxGeometry x="1491.5" y="12.5" width="40" height="30" as="geometry" />
        </mxCell>
        <mxCell id="dwUp4SZN7rPPU4Rl3Qnr-209" value="" style="edgeStyle=none;curved=1;rounded=0;orthogonalLoop=1;jettySize=auto;html=1;fontSize=12;startSize=8;endSize=8;" edge="1" parent="1" source="NU_M2kYpsmVGyGIH2Jjc-77" target="dwUp4SZN7rPPU4Rl3Qnr-208">
          <mxGeometry relative="1" as="geometry" />
        </mxCell>
        <mxCell id="dwUp4SZN7rPPU4Rl3Qnr-213" style="edgeStyle=none;curved=1;rounded=0;orthogonalLoop=1;jettySize=auto;html=1;exitX=0.75;exitY=1;exitDx=0;exitDy=0;entryX=0.5;entryY=0;entryDx=0;entryDy=0;fontSize=12;startSize=8;endSize=8;" edge="1" parent="1" source="NU_M2kYpsmVGyGIH2Jjc-77" target="NU_M2kYpsmVGyGIH2Jjc-92">
          <mxGeometry relative="1" as="geometry" />
        </mxCell>
        <mxCell id="_DhyvJcVUI92V6kRYwDM-21" value="" style="edgeStyle=none;curved=1;rounded=0;orthogonalLoop=1;jettySize=auto;html=1;fontSize=12;startSize=8;endSize=8;" edge="1" parent="1" source="NU_M2kYpsmVGyGIH2Jjc-77" target="NU_M2kYpsmVGyGIH2Jjc-93">
          <mxGeometry relative="1" as="geometry" />
        </mxCell>
        <mxCell id="NU_M2kYpsmVGyGIH2Jjc-77" value="Product" style="rounded=1;arcSize=10;whiteSpace=wrap;html=1;align=center;" vertex="1" parent="1">
          <mxGeometry x="567.2" y="-0.5" width="100" height="40" as="geometry" />
        </mxCell>
        <mxCell id="NU_M2kYpsmVGyGIH2Jjc-81" value="" style="endArrow=classic;html=1;rounded=0;fontSize=12;startSize=8;endSize=8;curved=1;exitX=1;exitY=1;exitDx=0;exitDy=0;" edge="1" parent="1" source="NU_M2kYpsmVGyGIH2Jjc-77" target="NU_M2kYpsmVGyGIH2Jjc-79">
          <mxGeometry width="50" height="50" relative="1" as="geometry">
            <mxPoint x="567.2" y="-10.5" as="sourcePoint" />
            <mxPoint x="527.2" y="-90.5" as="targetPoint" />
          </mxGeometry>
        </mxCell>
        <mxCell id="NU_M2kYpsmVGyGIH2Jjc-79" value="ProductId" style="ellipse;whiteSpace=wrap;html=1;align=center;fontStyle=4;" vertex="1" parent="1">
          <mxGeometry x="767.2" y="99.5" width="100" height="40" as="geometry" />
        </mxCell>
        <mxCell id="NU_M2kYpsmVGyGIH2Jjc-82" value="ProductName" style="ellipse;whiteSpace=wrap;html=1;align=center;" vertex="1" parent="1">
          <mxGeometry x="440" y="139.5" width="100" height="40" as="geometry" />
        </mxCell>
        <mxCell id="NU_M2kYpsmVGyGIH2Jjc-83" value="" style="endArrow=classic;html=1;rounded=0;fontSize=12;startSize=8;endSize=8;curved=1;exitX=0;exitY=1;exitDx=0;exitDy=0;" edge="1" parent="1" source="NU_M2kYpsmVGyGIH2Jjc-77" target="NU_M2kYpsmVGyGIH2Jjc-82">
          <mxGeometry width="50" height="50" relative="1" as="geometry">
            <mxPoint x="531" y="90.5" as="sourcePoint" />
            <mxPoint x="531" y="-19.5" as="targetPoint" />
          </mxGeometry>
        </mxCell>
        <mxCell id="NU_M2kYpsmVGyGIH2Jjc-84" value="Description" style="ellipse;whiteSpace=wrap;html=1;align=center;" vertex="1" parent="1">
          <mxGeometry x="677.2" y="-80.5" width="100" height="40" as="geometry" />
        </mxCell>
        <mxCell id="NU_M2kYpsmVGyGIH2Jjc-85" value="" style="endArrow=classic;html=1;rounded=0;fontSize=12;startSize=8;endSize=8;curved=1;exitX=1;exitY=0.25;exitDx=0;exitDy=0;entryX=0;entryY=1;entryDx=0;entryDy=0;" edge="1" parent="1" source="NU_M2kYpsmVGyGIH2Jjc-77" target="NU_M2kYpsmVGyGIH2Jjc-84">
          <mxGeometry width="50" height="50" relative="1" as="geometry">
            <mxPoint x="567.2" y="-0.5" as="sourcePoint" />
            <mxPoint x="617.2" y="-50.5" as="targetPoint" />
          </mxGeometry>
        </mxCell>
        <mxCell id="NU_M2kYpsmVGyGIH2Jjc-86" value="Price" style="ellipse;whiteSpace=wrap;html=1;align=center;" vertex="1" parent="1">
          <mxGeometry x="780" y="-40.5" width="100" height="40" as="geometry" />
        </mxCell>
        <mxCell id="NU_M2kYpsmVGyGIH2Jjc-87" value="" style="endArrow=classic;html=1;rounded=0;fontSize=12;startSize=8;endSize=8;curved=1;exitX=1;exitY=0.5;exitDx=0;exitDy=0;entryX=0;entryY=0.5;entryDx=0;entryDy=0;" edge="1" parent="1" source="NU_M2kYpsmVGyGIH2Jjc-77" target="NU_M2kYpsmVGyGIH2Jjc-86">
          <mxGeometry width="50" height="50" relative="1" as="geometry">
            <mxPoint x="567.2" y="-0.5" as="sourcePoint" />
            <mxPoint x="617.2" y="-50.5" as="targetPoint" />
          </mxGeometry>
        </mxCell>
        <mxCell id="NU_M2kYpsmVGyGIH2Jjc-88" value="StockQuantity" style="ellipse;whiteSpace=wrap;html=1;align=center;" vertex="1" parent="1">
          <mxGeometry x="741.2" y="29.5" width="100" height="40" as="geometry" />
        </mxCell>
        <mxCell id="NU_M2kYpsmVGyGIH2Jjc-89" value="" style="endArrow=classic;html=1;rounded=0;fontSize=12;startSize=8;endSize=8;curved=1;exitX=1;exitY=1;exitDx=0;exitDy=0;entryX=0;entryY=0.5;entryDx=0;entryDy=0;" edge="1" parent="1" source="NU_M2kYpsmVGyGIH2Jjc-77" target="NU_M2kYpsmVGyGIH2Jjc-88">
          <mxGeometry width="50" height="50" relative="1" as="geometry">
            <mxPoint x="567.2" y="-0.5" as="sourcePoint" />
            <mxPoint x="617.2" y="-50.5" as="targetPoint" />
          </mxGeometry>
        </mxCell>
        <mxCell id="NU_M2kYpsmVGyGIH2Jjc-92" value="&lt;span style=&quot;border-bottom: 1px dotted&quot;&gt;CategoryId&lt;/span&gt;" style="ellipse;whiteSpace=wrap;html=1;align=center;" vertex="1" parent="1">
          <mxGeometry x="700" y="150.5" width="100" height="40" as="geometry" />
        </mxCell>
        <mxCell id="NU_M2kYpsmVGyGIH2Jjc-93" value="&lt;span style=&quot;border-bottom: 1px dotted&quot;&gt;BrandId&lt;/span&gt;" style="ellipse;whiteSpace=wrap;html=1;align=center;" vertex="1" parent="1">
          <mxGeometry x="567.2" y="-110" width="100" height="40" as="geometry" />
        </mxCell>
        <mxCell id="NU_M2kYpsmVGyGIH2Jjc-95" value="&lt;span style=&quot;border-bottom: 1px dotted&quot;&gt;MerchantId&lt;/span&gt;" style="ellipse;whiteSpace=wrap;html=1;align=center;" vertex="1" parent="1">
          <mxGeometry x="567.2" y="150.5" width="100" height="40" as="geometry" />
        </mxCell>
        <mxCell id="NU_M2kYpsmVGyGIH2Jjc-96" value="" style="endArrow=classic;html=1;rounded=0;fontSize=12;startSize=8;endSize=8;curved=1;exitX=0.5;exitY=1;exitDx=0;exitDy=0;entryX=0.5;entryY=0;entryDx=0;entryDy=0;" edge="1" parent="1" source="NU_M2kYpsmVGyGIH2Jjc-77" target="NU_M2kYpsmVGyGIH2Jjc-95">
          <mxGeometry width="50" height="50" relative="1" as="geometry">
            <mxPoint x="577.2" y="9.5" as="sourcePoint" />
            <mxPoint x="512.1558815962233" y="85.19986661972689" as="targetPoint" />
          </mxGeometry>
        </mxCell>
        <mxCell id="dwUp4SZN7rPPU4Rl3Qnr-237" style="edgeStyle=none;curved=1;rounded=0;orthogonalLoop=1;jettySize=auto;html=1;fontSize=12;startSize=8;endSize=8;" edge="1" parent="1" source="dwUp4SZN7rPPU4Rl3Qnr-84">
          <mxGeometry relative="1" as="geometry">
            <mxPoint x="280" y="20" as="targetPoint" />
          </mxGeometry>
        </mxCell>
        <mxCell id="dwUp4SZN7rPPU4Rl3Qnr-84" value="Cart" style="whiteSpace=wrap;html=1;align=center;" vertex="1" parent="1">
          <mxGeometry x="80" y="-0.5" width="100" height="40" as="geometry" />
        </mxCell>
        <mxCell id="dwUp4SZN7rPPU4Rl3Qnr-85" value="quantity" style="ellipse;whiteSpace=wrap;html=1;align=center;" vertex="1" parent="1">
          <mxGeometry x="-30" y="-90.5" width="100" height="40" as="geometry" />
        </mxCell>
        <mxCell id="dwUp4SZN7rPPU4Rl3Qnr-86" value="user_id" style="ellipse;whiteSpace=wrap;html=1;align=center;" vertex="1" parent="1">
          <mxGeometry x="180" y="-80.5" width="100" height="40" as="geometry" />
        </mxCell>
        <mxCell id="dwUp4SZN7rPPU4Rl3Qnr-87" value="cart_id" style="ellipse;whiteSpace=wrap;html=1;align=center;" vertex="1" parent="1">
          <mxGeometry x="-70.5" y="46" width="100" height="40" as="geometry" />
        </mxCell>
        <mxCell id="dwUp4SZN7rPPU4Rl3Qnr-89" value="" style="endArrow=classic;html=1;rounded=0;entryX=0.5;entryY=1;entryDx=0;entryDy=0;exitX=0.25;exitY=0;exitDx=0;exitDy=0;" edge="1" parent="1" source="dwUp4SZN7rPPU4Rl3Qnr-84" target="dwUp4SZN7rPPU4Rl3Qnr-85">
          <mxGeometry width="50" height="50" relative="1" as="geometry">
            <mxPoint x="-20" y="19.5" as="sourcePoint" />
            <mxPoint x="30" y="-30.5" as="targetPoint" />
          </mxGeometry>
        </mxCell>
        <mxCell id="dwUp4SZN7rPPU4Rl3Qnr-90" value="" style="endArrow=classic;html=1;rounded=0;exitX=0;exitY=1;exitDx=0;exitDy=0;" edge="1" parent="1" source="dwUp4SZN7rPPU4Rl3Qnr-84">
          <mxGeometry width="50" height="50" relative="1" as="geometry">
            <mxPoint x="440" y="9.5" as="sourcePoint" />
            <mxPoint x="21" y="65.5" as="targetPoint" />
          </mxGeometry>
        </mxCell>
        <mxCell id="dwUp4SZN7rPPU4Rl3Qnr-91" value="" style="endArrow=classic;html=1;rounded=0;exitX=0.75;exitY=0;exitDx=0;exitDy=0;entryX=0.5;entryY=1;entryDx=0;entryDy=0;" edge="1" parent="1" source="dwUp4SZN7rPPU4Rl3Qnr-84" target="dwUp4SZN7rPPU4Rl3Qnr-86">
          <mxGeometry width="50" height="50" relative="1" as="geometry">
            <mxPoint x="440" y="9.5" as="sourcePoint" />
            <mxPoint x="490" y="-40.5" as="targetPoint" />
          </mxGeometry>
        </mxCell>
        <mxCell id="dwUp4SZN7rPPU4Rl3Qnr-92" value="" style="endArrow=classic;html=1;rounded=0;exitX=0.5;exitY=0;exitDx=0;exitDy=0;entryX=0.5;entryY=1;entryDx=0;entryDy=0;" edge="1" parent="1" source="dwUp4SZN7rPPU4Rl3Qnr-84" target="dwUp4SZN7rPPU4Rl3Qnr-232">
          <mxGeometry width="50" height="50" relative="1" as="geometry">
            <mxPoint x="440" y="9.5" as="sourcePoint" />
            <mxPoint x="270" y="-20.5" as="targetPoint" />
          </mxGeometry>
        </mxCell>
        <mxCell id="_DhyvJcVUI92V6kRYwDM-10" value="" style="edgeStyle=none;curved=1;rounded=0;orthogonalLoop=1;jettySize=auto;html=1;fontSize=12;startSize=8;endSize=8;exitX=0.331;exitY=0;exitDx=0;exitDy=0;exitPerimeter=0;" edge="1" parent="1" source="dwUp4SZN7rPPU4Rl3Qnr-127" target="dwUp4SZN7rPPU4Rl3Qnr-225">
          <mxGeometry relative="1" as="geometry">
            <mxPoint x="130" y="340" as="sourcePoint" />
          </mxGeometry>
        </mxCell>
        <mxCell id="dwUp4SZN7rPPU4Rl3Qnr-127" value="User" style="whiteSpace=wrap;html=1;align=center;" vertex="1" parent="1">
          <mxGeometry x="90" y="350" width="121" height="40" as="geometry" />
        </mxCell>
        <mxCell id="dwUp4SZN7rPPU4Rl3Qnr-128" value="email" style="ellipse;whiteSpace=wrap;html=1;align=center;" vertex="1" parent="1">
          <mxGeometry x="-60" y="240" width="100" height="40" as="geometry" />
        </mxCell>
        <mxCell id="dwUp4SZN7rPPU4Rl3Qnr-129" value="role" style="ellipse;whiteSpace=wrap;html=1;align=center;" vertex="1" parent="1">
          <mxGeometry x="231" y="430" width="100" height="40" as="geometry" />
        </mxCell>
        <mxCell id="dwUp4SZN7rPPU4Rl3Qnr-130" value="username" style="ellipse;whiteSpace=wrap;html=1;align=center;" vertex="1" parent="1">
          <mxGeometry x="92.5" y="490" width="100" height="40" as="geometry" />
        </mxCell>
        <mxCell id="dwUp4SZN7rPPU4Rl3Qnr-131" value="password" style="ellipse;whiteSpace=wrap;html=1;align=center;" vertex="1" parent="1">
          <mxGeometry x="231" y="270" width="100" height="40" as="geometry" />
        </mxCell>
        <mxCell id="dwUp4SZN7rPPU4Rl3Qnr-132" value="" style="endArrow=classic;html=1;rounded=0;entryX=0.5;entryY=1;entryDx=0;entryDy=0;exitX=0;exitY=1;exitDx=0;exitDy=0;" edge="1" parent="1" source="dwUp4SZN7rPPU4Rl3Qnr-127" target="dwUp4SZN7rPPU4Rl3Qnr-137">
          <mxGeometry width="50" height="50" relative="1" as="geometry">
            <mxPoint x="91" y="400" as="sourcePoint" />
            <mxPoint x="20" y="320" as="targetPoint" />
          </mxGeometry>
        </mxCell>
        <mxCell id="dwUp4SZN7rPPU4Rl3Qnr-133" value="" style="endArrow=classic;html=1;rounded=0;exitX=0.5;exitY=1;exitDx=0;exitDy=0;" edge="1" parent="1" source="dwUp4SZN7rPPU4Rl3Qnr-127">
          <mxGeometry width="50" height="50" relative="1" as="geometry">
            <mxPoint x="140" y="400" as="sourcePoint" />
            <mxPoint x="140" y="490" as="targetPoint" />
          </mxGeometry>
        </mxCell>
        <mxCell id="dwUp4SZN7rPPU4Rl3Qnr-135" value="" style="endArrow=classic;html=1;rounded=0;exitX=1;exitY=0;exitDx=0;exitDy=0;entryX=0;entryY=0.5;entryDx=0;entryDy=0;" edge="1" parent="1" source="dwUp4SZN7rPPU4Rl3Qnr-127" target="dwUp4SZN7rPPU4Rl3Qnr-131">
          <mxGeometry width="50" height="50" relative="1" as="geometry">
            <mxPoint x="450" y="360" as="sourcePoint" />
            <mxPoint x="500" y="310" as="targetPoint" />
          </mxGeometry>
        </mxCell>
        <mxCell id="dwUp4SZN7rPPU4Rl3Qnr-136" value="" style="endArrow=classic;html=1;rounded=0;exitX=1;exitY=0.5;exitDx=0;exitDy=0;entryX=0;entryY=0.5;entryDx=0;entryDy=0;" edge="1" parent="1" source="dwUp4SZN7rPPU4Rl3Qnr-127" target="dwUp4SZN7rPPU4Rl3Qnr-129">
          <mxGeometry width="50" height="50" relative="1" as="geometry">
            <mxPoint x="450" y="360" as="sourcePoint" />
            <mxPoint x="500" y="310" as="targetPoint" />
          </mxGeometry>
        </mxCell>
        <mxCell id="dwUp4SZN7rPPU4Rl3Qnr-137" value="user_id" style="ellipse;whiteSpace=wrap;html=1;align=center;fontStyle=4;" vertex="1" parent="1">
          <mxGeometry x="3.75" y="440" width="100" height="40" as="geometry" />
        </mxCell>
        <mxCell id="dwUp4SZN7rPPU4Rl3Qnr-210" value="" style="edgeStyle=none;curved=1;rounded=0;orthogonalLoop=1;jettySize=auto;html=1;fontSize=12;startSize=8;endSize=8;" edge="1" parent="1" target="NU_M2kYpsmVGyGIH2Jjc-45">
          <mxGeometry relative="1" as="geometry">
            <mxPoint x="1161.5" y="13" as="sourcePoint" />
          </mxGeometry>
        </mxCell>
        <mxCell id="dwUp4SZN7rPPU4Rl3Qnr-208" value="has" style="shape=rhombus;perimeter=rhombusPerimeter;whiteSpace=wrap;html=1;align=center;" vertex="1" parent="1">
          <mxGeometry x="1041.5" y="-14" width="120" height="60" as="geometry" />
        </mxCell>
        <mxCell id="dwUp4SZN7rPPU4Rl3Qnr-211" value="1" style="text;html=1;align=center;verticalAlign=middle;resizable=0;points=[];autosize=1;strokeColor=none;fillColor=none;fontSize=16;" vertex="1" parent="1">
          <mxGeometry x="190" y="-10.5" width="30" height="30" as="geometry" />
        </mxCell>
        <mxCell id="dwUp4SZN7rPPU4Rl3Qnr-212" value="1" style="text;html=1;align=center;verticalAlign=middle;resizable=0;points=[];autosize=1;strokeColor=none;fillColor=none;fontSize=16;" vertex="1" parent="1">
          <mxGeometry x="1000" y="-10.5" width="30" height="30" as="geometry" />
        </mxCell>
        <mxCell id="dwUp4SZN7rPPU4Rl3Qnr-228" style="edgeStyle=none;curved=1;rounded=0;orthogonalLoop=1;jettySize=auto;html=1;exitX=0.5;exitY=0;exitDx=0;exitDy=0;entryX=0.5;entryY=1;entryDx=0;entryDy=0;fontSize=12;startSize=8;endSize=8;" edge="1" parent="1" source="dwUp4SZN7rPPU4Rl3Qnr-225" target="dwUp4SZN7rPPU4Rl3Qnr-84">
          <mxGeometry relative="1" as="geometry" />
        </mxCell>
        <mxCell id="dwUp4SZN7rPPU4Rl3Qnr-225" value="manages" style="shape=rhombus;perimeter=rhombusPerimeter;whiteSpace=wrap;html=1;align=center;" vertex="1" parent="1">
          <mxGeometry x="70" y="170" width="120" height="60" as="geometry" />
        </mxCell>
        <mxCell id="dwUp4SZN7rPPU4Rl3Qnr-229" value="1" style="text;html=1;align=center;verticalAlign=middle;resizable=0;points=[];autosize=1;strokeColor=none;fillColor=none;fontSize=16;" vertex="1" parent="1">
          <mxGeometry x="90" y="301" width="30" height="30" as="geometry" />
        </mxCell>
        <mxCell id="dwUp4SZN7rPPU4Rl3Qnr-230" value="n" style="text;html=1;align=center;verticalAlign=middle;resizable=0;points=[];autosize=1;strokeColor=none;fillColor=none;fontSize=16;" vertex="1" parent="1">
          <mxGeometry x="100" y="50.5" width="30" height="30" as="geometry" />
        </mxCell>
        <mxCell id="dwUp4SZN7rPPU4Rl3Qnr-232" value="&lt;span style=&quot;border-bottom: 1px dotted&quot;&gt;product_Id&lt;/span&gt;" style="ellipse;whiteSpace=wrap;html=1;align=center;" vertex="1" parent="1">
          <mxGeometry x="70" y="-110" width="100" height="40" as="geometry" />
        </mxCell>
        <mxCell id="dwUp4SZN7rPPU4Rl3Qnr-234" value="manages" style="shape=rhombus;perimeter=rhombusPerimeter;whiteSpace=wrap;html=1;align=center;" vertex="1" parent="1">
          <mxGeometry x="280" y="-10.5" width="120" height="60" as="geometry" />
        </mxCell>
        <mxCell id="dwUp4SZN7rPPU4Rl3Qnr-252" value="" style="endArrow=classic;html=1;rounded=0;fontSize=12;startSize=8;endSize=8;curved=1;exitX=0;exitY=0;exitDx=0;exitDy=0;" edge="1" parent="1" source="dwUp4SZN7rPPU4Rl3Qnr-127">
          <mxGeometry width="50" height="50" relative="1" as="geometry">
            <mxPoint x="451" y="90" as="sourcePoint" />
            <mxPoint x="11" y="280" as="targetPoint" />
          </mxGeometry>
        </mxCell>
        <mxCell id="dwUp4SZN7rPPU4Rl3Qnr-291" value="" style="edgeStyle=none;curved=1;rounded=0;orthogonalLoop=1;jettySize=auto;html=1;fontSize=12;startSize=8;endSize=8;" edge="1" parent="1" source="dwUp4SZN7rPPU4Rl3Qnr-253" target="dwUp4SZN7rPPU4Rl3Qnr-290">
          <mxGeometry relative="1" as="geometry" />
        </mxCell>
        <mxCell id="dwUp4SZN7rPPU4Rl3Qnr-253" value="Order" style="whiteSpace=wrap;html=1;align=center;" vertex="1" parent="1">
          <mxGeometry x="1051.5" y="354.5" width="100" height="40" as="geometry" />
        </mxCell>
        <mxCell id="dwUp4SZN7rPPU4Rl3Qnr-254" value="orderDate" style="ellipse;whiteSpace=wrap;html=1;align=center;" vertex="1" parent="1">
          <mxGeometry x="911.5" y="444.5" width="100" height="40" as="geometry" />
        </mxCell>
        <mxCell id="dwUp4SZN7rPPU4Rl3Qnr-256" value="totalAmount" style="ellipse;whiteSpace=wrap;html=1;align=center;" vertex="1" parent="1">
          <mxGeometry x="1160" y="430" width="100" height="40" as="geometry" />
        </mxCell>
        <mxCell id="dwUp4SZN7rPPU4Rl3Qnr-257" value="status" style="ellipse;whiteSpace=wrap;html=1;align=center;" vertex="1" parent="1">
          <mxGeometry x="1030" y="250" width="100" height="40" as="geometry" />
        </mxCell>
        <mxCell id="dwUp4SZN7rPPU4Rl3Qnr-259" value="" style="endArrow=classic;html=1;rounded=0;exitX=0;exitY=1;exitDx=0;exitDy=0;" edge="1" parent="1" source="dwUp4SZN7rPPU4Rl3Qnr-253">
          <mxGeometry width="50" height="50" relative="1" as="geometry">
            <mxPoint x="941.5" y="374.5" as="sourcePoint" />
            <mxPoint x="991.5" y="444.5" as="targetPoint" />
          </mxGeometry>
        </mxCell>
        <mxCell id="dwUp4SZN7rPPU4Rl3Qnr-260" value="" style="endArrow=classic;html=1;rounded=0;entryX=0.5;entryY=1;entryDx=0;entryDy=0;" edge="1" parent="1" target="dwUp4SZN7rPPU4Rl3Qnr-257">
          <mxGeometry width="50" height="50" relative="1" as="geometry">
            <mxPoint x="1094" y="360" as="sourcePoint" />
            <mxPoint x="1451.5" y="314.5" as="targetPoint" />
          </mxGeometry>
        </mxCell>
        <mxCell id="dwUp4SZN7rPPU4Rl3Qnr-261" value="" style="endArrow=classic;html=1;rounded=0;exitX=0;exitY=0;exitDx=0;exitDy=0;entryX=0.5;entryY=1;entryDx=0;entryDy=0;" edge="1" parent="1" source="dwUp4SZN7rPPU4Rl3Qnr-253">
          <mxGeometry width="50" height="50" relative="1" as="geometry">
            <mxPoint x="1401.5" y="364.5" as="sourcePoint" />
            <mxPoint x="971.5" y="324.5" as="targetPoint" />
          </mxGeometry>
        </mxCell>
        <mxCell id="dwUp4SZN7rPPU4Rl3Qnr-262" value="" style="endArrow=classic;html=1;rounded=0;exitX=1;exitY=0;exitDx=0;exitDy=0;entryX=0.5;entryY=1;entryDx=0;entryDy=0;" edge="1" parent="1" source="dwUp4SZN7rPPU4Rl3Qnr-253" target="dwUp4SZN7rPPU4Rl3Qnr-273">
          <mxGeometry width="50" height="50" relative="1" as="geometry">
            <mxPoint x="1401.5" y="364.5" as="sourcePoint" />
            <mxPoint x="1231.5" y="334.5" as="targetPoint" />
            <Array as="points" />
          </mxGeometry>
        </mxCell>
        <mxCell id="dwUp4SZN7rPPU4Rl3Qnr-263" value="" style="endArrow=classic;html=1;rounded=0;entryX=0;entryY=0.5;entryDx=0;entryDy=0;" edge="1" parent="1" target="dwUp4SZN7rPPU4Rl3Qnr-256">
          <mxGeometry width="50" height="50" relative="1" as="geometry">
            <mxPoint x="1130" y="400" as="sourcePoint" />
            <mxPoint x="1451.5" y="314.5" as="targetPoint" />
          </mxGeometry>
        </mxCell>
        <mxCell id="dwUp4SZN7rPPU4Rl3Qnr-264" value="" style="endArrow=classic;html=1;rounded=0;fontSize=12;startSize=8;endSize=8;curved=1;exitX=1;exitY=0.5;exitDx=0;exitDy=0;entryX=0;entryY=0.5;entryDx=0;entryDy=0;" edge="1" parent="1" source="dwUp4SZN7rPPU4Rl3Qnr-267" target="dwUp4SZN7rPPU4Rl3Qnr-253">
          <mxGeometry width="50" height="50" relative="1" as="geometry">
            <mxPoint x="991" y="234.5" as="sourcePoint" />
            <mxPoint x="1041" y="184.5" as="targetPoint" />
          </mxGeometry>
        </mxCell>
        <mxCell id="dwUp4SZN7rPPU4Rl3Qnr-266" value="" style="endArrow=classic;html=1;rounded=0;fontSize=12;startSize=8;endSize=8;curved=1;exitX=1;exitY=0.5;exitDx=0;exitDy=0;entryX=0;entryY=0.5;entryDx=0;entryDy=0;" edge="1" parent="1" source="dwUp4SZN7rPPU4Rl3Qnr-127" target="dwUp4SZN7rPPU4Rl3Qnr-267">
          <mxGeometry width="50" height="50" relative="1" as="geometry">
            <mxPoint x="1460" y="770" as="sourcePoint" />
            <mxPoint x="1310" y="910" as="targetPoint" />
          </mxGeometry>
        </mxCell>
        <mxCell id="dwUp4SZN7rPPU4Rl3Qnr-267" value="have" style="shape=rhombus;perimeter=rhombusPerimeter;whiteSpace=wrap;html=1;align=center;" vertex="1" parent="1">
          <mxGeometry x="630" y="340" width="120" height="60" as="geometry" />
        </mxCell>
        <mxCell id="dwUp4SZN7rPPU4Rl3Qnr-268" value="1" style="text;html=1;align=center;verticalAlign=middle;resizable=0;points=[];autosize=1;strokeColor=none;fillColor=none;fontSize=16;" vertex="1" parent="1">
          <mxGeometry x="549" y="331" width="30" height="30" as="geometry" />
        </mxCell>
        <mxCell id="dwUp4SZN7rPPU4Rl3Qnr-269" value="n" style="text;html=1;align=center;verticalAlign=middle;resizable=0;points=[];autosize=1;strokeColor=none;fillColor=none;fontSize=16;" vertex="1" parent="1">
          <mxGeometry x="926.5" y="340" width="30" height="30" as="geometry" />
        </mxCell>
        <mxCell id="dwUp4SZN7rPPU4Rl3Qnr-273" value="&lt;span style=&quot;border-bottom: 1px dotted&quot;&gt;UserId&lt;/span&gt;" style="ellipse;whiteSpace=wrap;html=1;align=center;" vertex="1" parent="1">
          <mxGeometry x="1151.5" y="271" width="100" height="40" as="geometry" />
        </mxCell>
        <mxCell id="dwUp4SZN7rPPU4Rl3Qnr-277" value="Payment" style="whiteSpace=wrap;html=1;align=center;" vertex="1" parent="1">
          <mxGeometry x="1601" y="351" width="100" height="40" as="geometry" />
        </mxCell>
        <mxCell id="dwUp4SZN7rPPU4Rl3Qnr-284" value="" style="endArrow=classic;html=1;rounded=0;exitX=0.75;exitY=0;exitDx=0;exitDy=0;entryX=0.5;entryY=1;entryDx=0;entryDy=0;" edge="1" parent="1" source="dwUp4SZN7rPPU4Rl3Qnr-277">
          <mxGeometry width="50" height="50" relative="1" as="geometry">
            <mxPoint x="1961" y="361" as="sourcePoint" />
            <mxPoint x="1751" y="311" as="targetPoint" />
          </mxGeometry>
        </mxCell>
        <mxCell id="dwUp4SZN7rPPU4Rl3Qnr-285" value="" style="endArrow=classic;html=1;rounded=0;exitX=1;exitY=0;exitDx=0;exitDy=0;entryX=0;entryY=0.5;entryDx=0;entryDy=0;" edge="1" parent="1" source="dwUp4SZN7rPPU4Rl3Qnr-277">
          <mxGeometry width="50" height="50" relative="1" as="geometry">
            <mxPoint x="1961" y="361" as="sourcePoint" />
            <mxPoint x="1791" y="331" as="targetPoint" />
          </mxGeometry>
        </mxCell>
        <mxCell id="dwUp4SZN7rPPU4Rl3Qnr-287" value="" style="endArrow=classic;html=1;rounded=0;fontSize=12;startSize=8;endSize=8;curved=1;exitX=0;exitY=0;exitDx=0;exitDy=0;" edge="1" parent="1" source="dwUp4SZN7rPPU4Rl3Qnr-277">
          <mxGeometry width="50" height="50" relative="1" as="geometry">
            <mxPoint x="1501" y="341" as="sourcePoint" />
            <mxPoint x="1571" y="311" as="targetPoint" />
          </mxGeometry>
        </mxCell>
        <mxCell id="dwUp4SZN7rPPU4Rl3Qnr-289" value="&lt;span style=&quot;border-bottom: 1px dotted&quot;&gt;order_id&lt;/span&gt;" style="ellipse;whiteSpace=wrap;html=1;align=center;" vertex="1" parent="1">
          <mxGeometry x="1791" y="311" width="100" height="40" as="geometry" />
        </mxCell>
        <mxCell id="dwUp4SZN7rPPU4Rl3Qnr-292" value="" style="edgeStyle=none;curved=1;rounded=0;orthogonalLoop=1;jettySize=auto;html=1;fontSize=12;startSize=8;endSize=8;" edge="1" parent="1" source="dwUp4SZN7rPPU4Rl3Qnr-290" target="dwUp4SZN7rPPU4Rl3Qnr-277">
          <mxGeometry relative="1" as="geometry" />
        </mxCell>
        <mxCell id="dwUp4SZN7rPPU4Rl3Qnr-290" value="have" style="shape=rhombus;perimeter=rhombusPerimeter;whiteSpace=wrap;html=1;align=center;" vertex="1" parent="1">
          <mxGeometry x="1290" y="341.5" width="120" height="60" as="geometry" />
        </mxCell>
        <mxCell id="dwUp4SZN7rPPU4Rl3Qnr-293" value="1" style="text;html=1;align=center;verticalAlign=middle;resizable=0;points=[];autosize=1;strokeColor=none;fillColor=none;fontSize=16;" vertex="1" parent="1">
          <mxGeometry x="1230" y="335.5" width="30" height="30" as="geometry" />
        </mxCell>
        <mxCell id="dwUp4SZN7rPPU4Rl3Qnr-294" value="n" style="text;html=1;align=center;verticalAlign=middle;resizable=0;points=[];autosize=1;strokeColor=none;fillColor=none;fontSize=16;" vertex="1" parent="1">
          <mxGeometry x="1530" y="340" width="30" height="30" as="geometry" />
        </mxCell>
        <mxCell id="_DhyvJcVUI92V6kRYwDM-1" value="Order_id" style="ellipse;whiteSpace=wrap;html=1;align=center;fontStyle=4;" vertex="1" parent="1">
          <mxGeometry x="891.5" y="285.5" width="100" height="40" as="geometry" />
        </mxCell>
        <mxCell id="_DhyvJcVUI92V6kRYwDM-2" value="PaymentId" style="ellipse;whiteSpace=wrap;html=1;align=center;fontStyle=4;" vertex="1" parent="1">
          <mxGeometry x="1490" y="271" width="100" height="39" as="geometry" />
        </mxCell>
        <mxCell id="_DhyvJcVUI92V6kRYwDM-3" value="amount" style="ellipse;whiteSpace=wrap;html=1;align=center;" vertex="1" parent="1">
          <mxGeometry x="1720" y="270" width="100" height="40" as="geometry" />
        </mxCell>
        <mxCell id="_DhyvJcVUI92V6kRYwDM-4" value="" style="endArrow=classic;html=1;rounded=0;fontSize=12;startSize=8;endSize=8;curved=1;exitX=1;exitY=1;exitDx=0;exitDy=0;" edge="1" parent="1" source="dwUp4SZN7rPPU4Rl3Qnr-277">
          <mxGeometry width="50" height="50" relative="1" as="geometry">
            <mxPoint x="1681" y="401" as="sourcePoint" />
            <mxPoint x="1791" y="391" as="targetPoint" />
          </mxGeometry>
        </mxCell>
        <mxCell id="_DhyvJcVUI92V6kRYwDM-5" value="paymentStatus" style="ellipse;whiteSpace=wrap;html=1;align=center;" vertex="1" parent="1">
          <mxGeometry x="1791" y="371" width="100" height="40" as="geometry" />
        </mxCell>
        <mxCell id="_DhyvJcVUI92V6kRYwDM-6" value="" style="endArrow=classic;html=1;rounded=0;fontSize=12;startSize=8;endSize=8;curved=1;exitX=0.5;exitY=0;exitDx=0;exitDy=0;" edge="1" parent="1" source="dwUp4SZN7rPPU4Rl3Qnr-277">
          <mxGeometry width="50" height="50" relative="1" as="geometry">
            <mxPoint x="1681" y="401" as="sourcePoint" />
            <mxPoint x="1636.7142857142858" y="301" as="targetPoint" />
          </mxGeometry>
        </mxCell>
        <mxCell id="_DhyvJcVUI92V6kRYwDM-8" value="paymentDate" style="ellipse;whiteSpace=wrap;html=1;align=center;" vertex="1" parent="1">
          <mxGeometry x="1590" y="261" width="100" height="40" as="geometry" />
        </mxCell>
        <mxCell id="_DhyvJcVUI92V6kRYwDM-16" value="n" style="text;html=1;align=center;verticalAlign=middle;resizable=0;points=[];autosize=1;strokeColor=none;fillColor=none;fontSize=16;" vertex="1" parent="1">
          <mxGeometry x="1320.5" y="-26" width="30" height="30" as="geometry" />
        </mxCell>
        <mxCell id="_DhyvJcVUI92V6kRYwDM-17" value="" style="edgeStyle=none;curved=1;rounded=0;orthogonalLoop=1;jettySize=auto;html=1;fontSize=12;startSize=8;endSize=8;" edge="1" parent="1">
          <mxGeometry relative="1" as="geometry">
            <mxPoint x="394.1126279863479" y="19.443686006826283" as="sourcePoint" />
            <mxPoint x="570" y="19" as="targetPoint" />
          </mxGeometry>
        </mxCell>
        <mxCell id="_DhyvJcVUI92V6kRYwDM-20" value="n" style="text;html=1;align=center;verticalAlign=middle;resizable=0;points=[];autosize=1;strokeColor=none;fillColor=none;fontSize=16;" vertex="1" parent="1">
          <mxGeometry x="510" y="-9" width="30" height="30" as="geometry" />
        </mxCell>
      </root>
    </mxGraphModel>
  </diagram>
  <diagram id="YczbiGDCWfq3HLZ3WJv5" name="Page-2">
    <mxGraphModel dx="778" dy="558" grid="0" gridSize="10" guides="1" tooltips="1" connect="1" arrows="1" fold="1" page="0" pageScale="1" pageWidth="850" pageHeight="1100" math="0" shadow="0">
      <root>
        <mxCell id="0" />
        <mxCell id="1" parent="0" />
      </root>
    </mxGraphModel>
  </diagram>
  <diagram id="ZqY-Qk9adl_3Ky8J7UtZ" name="Page-3">
    <mxGraphModel dx="778" dy="558" grid="0" gridSize="10" guides="1" tooltips="1" connect="1" arrows="1" fold="1" page="0" pageScale="1" pageWidth="850" pageHeight="1100" math="0" shadow="0">
      <root>
        <mxCell id="0" />
        <mxCell id="1" parent="0" />
      </root>
    </mxGraphModel>
  </diagram>
</mxfile>
